<svg xmlns="http://www.w3.org/2000/svg" version="1.1" baseProfile="full" viewBox="0 0 804 184" width="80.4ex" height="18.4ex">
<g font-size="16" font-family="monospace">
<rect x="0" y="0" width="804" height="184" fill="#000"></rect><rect x="0" y="0" width="804" height="184" fill="#000"></rect>
<rect x="2" y="2" width="800" height="20" fill="#048"></rect><g fill="#ccc"><text x="12" y="17">*</text><text x="22" y="17">*</text><text x="32" y="17">L</text><text x="42" y="17">a</text><text x="52" y="17">t</text><text x="62" y="17">e</text><text x="72" y="17">s</text><text x="82" y="17">t</text> <text x="102" y="17">r</text><text x="112" y="17">e</text><text x="122" y="17">l</text><text x="132" y="17">e</text><text x="142" y="17">a</text><text x="152" y="17">s</text><text x="162" y="17">e</text><text x="172" y="17">*</text><text x="182" y="17">*</text><text x="192" y="17">:</text> <text x="212" y="17">1</text><text x="222" y="17">.</text><text x="232" y="17">2</text><text x="242" y="17">.</text><text x="252" y="17">0</text> <text x="272" y="17">|</text> <text x="292" y="17">h</text><text x="302" y="17">t</text><text x="312" y="17">t</text><text x="322" y="17">p</text><text x="332" y="17">s</text><text x="342" y="17">:</text><text x="352" y="17">/</text><text x="362" y="17">/</text><text x="372" y="17">i</text><text x="382" y="17">r</text><text x="392" y="17">s</text><text x="402" y="17">s</text><text x="412" y="17">i</text><text x="422" y="17">.</text><text x="432" y="17">o</text><text x="442" y="17">r</text><text x="452" y="17">g</text><text x="462" y="17">/</text> <text x="482" y="17">|</text> <text x="502" y="17">T</text><text x="512" y="17">i</text><text x="522" y="17">p</text><text x="532" y="17">:</text> <text x="552" y="17">i</text><text x="562" y="17">r</text><text x="572" y="17">s</text><text x="582" y="17">s</text><text x="592" y="17">i</text> <text x="612" y="17">c</text><text x="622" y="17">o</text><text x="632" y="17">m</text><text x="642" y="17">m</text><text x="652" y="17">a</text><text x="662" y="17">n</text><text x="672" y="17">d</text><text x="682" y="17">s</text> <text x="702" y="17">a</text><text x="712" y="17">r</text><text x="722" y="17">e</text> <text x="742" y="17">p</text><text x="752" y="17">r</text><text x="762" y="17">e</text><text x="772" y="17">c</text><text x="782" y="17">e</text><text x="792" y="17">d</text></g>
<rect x="2" y="22" width="60" height="20" fill="#000"></rect><g fill="#ddd"><text x="2" y="37">2</text><text x="12" y="37">1</text><text x="22" y="37">:</text><text x="32" y="37">4</text><text x="42" y="37">5</text> </g><rect x="62" y="22" width="10" height="20" fill="#000"></rect><g font-weight="bold" fill="#5af"><text x="62" y="37">-</text></g><rect x="72" y="22" width="10" height="20" fill="#000"></rect><g fill="#ddd"><text x="72" y="37">!</text></g><rect x="82" y="22" width="10" height="20" fill="#000"></rect><g font-weight="bold" fill="#5af"><text x="82" y="37">-</text> </g><rect x="92" y="22" width="10" height="20" fill="#000"></rect><g fill="#ddd"></g><rect x="102" y="22" width="60" height="20" fill="#000"></rect><g font-weight="bold" fill="#fff"><text x="102" y="37">I</text><text x="112" y="37">r</text><text x="122" y="37">s</text><text x="132" y="37">s</text><text x="142" y="37">i</text><text x="152" y="37">:</text> </g><rect x="162" y="22" width="170" height="20" fill="#000"></rect><g fill="#ddd"><text x="172" y="37">S</text><text x="182" y="37">u</text><text x="192" y="37">g</text><text x="202" y="37">g</text><text x="212" y="37">e</text><text x="222" y="37">s</text><text x="232" y="37">t</text><text x="242" y="37">i</text><text x="252" y="37">o</text><text x="262" y="37">n</text><text x="272" y="37">s</text> <text x="292" y="37">f</text><text x="302" y="37">o</text><text x="312" y="37">r</text> </g><rect x="332" y="22" width="70" height="20" fill="#000"></rect><g font-weight="bold" fill="#f00"><text x="332" y="37">p</text><text x="342" y="37">e</text><text x="352" y="37">r</text><text x="362" y="37">f</text><text x="372" y="37">r</text><text x="382" y="37">o</text><text x="392" y="37">m</text> </g><rect x="402" y="22" width="320" height="20" fill="#000"></rect><g fill="#ddd"><text x="412" y="37">-</text> <text x="432" y="37">p</text><text x="442" y="37">e</text><text x="452" y="37">r</text> <text x="472" y="37">f</text><text x="482" y="37">r</text><text x="492" y="37">o</text><text x="502" y="37">m</text><text x="512" y="37">,</text> <text x="532" y="37">p</text><text x="542" y="37">e</text><text x="552" y="37">r</text><text x="562" y="37">-</text><text x="572" y="37">f</text><text x="582" y="37">r</text><text x="592" y="37">o</text><text x="602" y="37">m</text><text x="612" y="37">,</text> <text x="632" y="37">p</text><text x="642" y="37">e</text><text x="652" y="37">r</text><text x="662" y="37">f</text><text x="672" y="37">o</text><text x="682" y="37">r</text><text x="692" y="37">m</text><text x="702" y="37">,</text></g><rect x="722" y="22" width="80" height="20" fill="#000"></rect><g fill="#ddd"></g>
<rect x="2" y="42" width="100" height="20" fill="#000"></rect><g fill="#ddd"></g><rect x="102" y="42" width="660" height="20" fill="#000"></rect><g fill="#ddd"><text x="102" y="57">p</text><text x="112" y="57">r</text><text x="122" y="57">e</text><text x="132" y="57">f</text><text x="142" y="57">o</text><text x="152" y="57">r</text><text x="162" y="57">m</text><text x="172" y="57">,</text> <text x="192" y="57">p</text><text x="202" y="57">e</text><text x="212" y="57">r</text><text x="222" y="57">f</text><text x="232" y="57">o</text><text x="242" y="57">r</text><text x="252" y="57">m</text><text x="262" y="57">e</text><text x="272" y="57">r</text><text x="282" y="57">,</text> <text x="302" y="57">f</text><text x="312" y="57">r</text><text x="322" y="57">o</text><text x="332" y="57">m</text><text x="342" y="57">,</text> <text x="362" y="57">p</text><text x="372" y="57">r</text><text x="382" y="57">o</text><text x="392" y="57">m</text><text x="402" y="57">,</text> <text x="422" y="57">p</text><text x="432" y="57">e</text><text x="442" y="57">r</text><text x="452" y="57">f</text><text x="462" y="57">u</text><text x="472" y="57">m</text><text x="482" y="57">e</text><text x="492" y="57">,</text> <text x="512" y="57">p</text><text x="522" y="57">o</text><text x="532" y="57">g</text><text x="542" y="57">r</text><text x="552" y="57">o</text><text x="562" y="57">m</text><text x="572" y="57">,</text> <text x="592" y="57">p</text><text x="602" y="57">r</text><text x="612" y="57">o</text><text x="622" y="57">f</text><text x="632" y="57">o</text><text x="642" y="57">r</text><text x="652" y="57">m</text><text x="662" y="57">a</text><text x="672" y="57">,</text> <text x="692" y="57">F</text><text x="702" y="57">r</text><text x="712" y="57">o</text><text x="722" y="57">m</text><text x="732" y="57">m</text><text x="742" y="57">,</text></g><rect x="762" y="42" width="40" height="20" fill="#000"></rect><g fill="#ddd"></g>
<rect x="2" y="62" width="100" height="20" fill="#000"></rect><g fill="#ddd"></g><rect x="102" y="62" width="50" height="20" fill="#000"></rect><g fill="#ddd"><text x="102" y="77">p</text><text x="112" y="77">r</text><text x="122" y="77">o</text><text x="132" y="77">m</text><text x="142" y="77">o</text></g><rect x="152" y="62" width="650" height="20" fill="#000"></rect><g fill="#ddd"></g>
<rect x="2" y="82" width="800" height="20" fill="#000"></rect><g fill="#ddd"></g>
<rect x="2" y="102" width="800" height="20" fill="#000"></rect><g fill="#ddd"></g>
<rect x="2" y="122" width="800" height="20" fill="#000"></rect><g fill="#ddd"></g>
<rect x="2" y="142" width="10" height="20" fill="#048"></rect><g fill="#ccc"></g><rect x="12" y="142" width="10" height="20" fill="#048"></rect><g fill="#088"><text x="12" y="157">[</text></g><rect x="22" y="142" width="50" height="20" fill="#048"></rect><g fill="#ccc"><text x="22" y="157">2</text><text x="32" y="157">1</text><text x="42" y="157">:</text><text x="52" y="157">4</text><text x="62" y="157">6</text></g><rect x="72" y="142" width="10" height="20" fill="#048"></rect><g fill="#088"><text x="72" y="157">]</text> </g><rect x="82" y="142" width="10" height="20" fill="#048"></rect><g fill="#ccc"></g><rect x="92" y="142" width="10" height="20" fill="#048"></rect><g fill="#088"><text x="92" y="157">[</text></g><rect x="102" y="142" width="70" height="20" fill="#048"></rect><g fill="#ccc"><text x="102" y="157">+</text><text x="112" y="157">j</text><text x="122" y="157">w</text><text x="132" y="157">i</text><text x="142" y="157">l</text><text x="152" y="157">k</text><text x="162" y="157">(</text></g><rect x="172" y="142" width="10" height="20" fill="#048"></rect><g fill="#088"><text x="172" y="157">+</text></g><rect x="182" y="142" width="30" height="20" fill="#048"></rect><g fill="#ccc"><text x="182" y="157">Z</text><text x="192" y="157">i</text><text x="202" y="157">)</text></g><rect x="212" y="142" width="10" height="20" fill="#048"></rect><g fill="#088"><text x="212" y="157">]</text> </g><rect x="222" y="142" width="10" height="20" fill="#048"></rect><g fill="#ccc"></g><rect x="232" y="142" width="10" height="20" fill="#048"></rect><g fill="#088"><text x="232" y="157">[</text></g><rect x="242" y="142" width="180" height="20" fill="#048"></rect><g fill="#ccc"><text x="242" y="157">2</text><text x="252" y="157">:</text><text x="262" y="157">F</text><text x="272" y="157">r</text><text x="282" y="157">e</text><text x="292" y="157">e</text><text x="302" y="157">n</text><text x="312" y="157">o</text><text x="322" y="157">d</text><text x="332" y="157">e</text><text x="342" y="157">/</text><text x="352" y="157">#</text><text x="362" y="157">i</text><text x="372" y="157">r</text><text x="382" y="157">s</text><text x="392" y="157">s</text><text x="402" y="157">i</text><text x="412" y="157">(</text></g><rect x="422" y="142" width="10" height="20" fill="#048"></rect><g fill="#088"><text x="422" y="157">+</text></g><rect x="432" y="142" width="80" height="20" fill="#048"></rect><g fill="#ccc"><text x="432" y="157">C</text><text x="442" y="157">P</text><text x="452" y="157">g</text><text x="462" y="157">m</text><text x="472" y="157">n</text><text x="482" y="157">t</text><text x="492" y="157">z</text><text x="502" y="157">)</text></g><rect x="512" y="142" width="10" height="20" fill="#048"></rect><g fill="#088"><text x="512" y="157">]</text></g><rect x="522" y="142" width="280" height="20" fill="#048"></rect><g fill="#ccc"></g>
<rect x="2" y="162" width="210" height="20" fill="#000"></rect><g fill="#ddd"><text x="2" y="177">[</text><text x="12" y="177">#</text><text x="22" y="177">i</text><text x="32" y="177">r</text><text x="42" y="177">s</text><text x="52" y="177">s</text><text x="62" y="177">i</text><text x="72" y="177">]</text> <text x="92" y="177">H</text><text x="102" y="177">e</text><text x="112" y="177">a</text><text x="122" y="177">v</text><text x="132" y="177">y</text> <text x="152" y="177">b</text><text x="162" y="177">o</text><text x="172" y="177">x</text><text x="182" y="177">e</text><text x="192" y="177">s</text> </g><rect x="212" y="162" width="70" height="20" fill="#000"></rect><g font-weight="bold" fill="#f00"><text x="212" y="177">p</text><text x="222" y="177">e</text><text x="232" y="177">r</text><text x="242" y="177">f</text><text x="252" y="177">r</text><text x="262" y="177">o</text><text x="272" y="177">m</text> </g><rect x="282" y="162" width="240" height="20" fill="#000"></rect><g fill="#ddd"><text x="292" y="177">q</text><text x="302" y="177">u</text><text x="312" y="177">i</text><text x="322" y="177">c</text><text x="332" y="177">k</text> <text x="352" y="177">w</text><text x="362" y="177">a</text><text x="372" y="177">l</text><text x="382" y="177">t</text><text x="392" y="177">z</text><text x="402" y="177">e</text><text x="412" y="177">s</text> <text x="432" y="177">a</text><text x="442" y="177">n</text><text x="452" y="177">d</text> <text x="472" y="177">j</text><text x="482" y="177">i</text><text x="492" y="177">g</text><text x="502" y="177">s</text><text x="512" y="177">.</text></g><rect x="522" y="162" width="280" height="20" fill="#000"></rect><g fill="#ddd"></g>
</g>
</svg>
